
        <svg xmlns:rdf="http://www.w3.org/1999/02/22-rdf-syntax-ns#" xmlns="http://www.w3.org/2000/svg" xmlns:cc="http://creativecommons.org/ns#" xmlns:xlink="http://www.w3.org/1999/xlink" xmlns:dc="http://purl.org/dc/elements/1.1/" x="0px" y="0px" width="501" height="461" viewBox="0 0 501 461" xml:space="preserve">
            <title>Corbicula fluminea (Asian Clam)</title>
            <desc xmlns:ian_image_library="https://ian.umces.edu/media-library/">
                <ian_image_library:title>Corbicula fluminea (Asian Clam)</ian_image_library:title>
                <ian_image_library:descr><p>Illustration of Corbicula fluminea.</p></ian_image_library:descr>
                <ian_image_library:scene>
                    <ian_image_library:contains>golden clam, golden freshwater clam, prosperity clam, good luck clam, Mollusca, Bivalvia, Heterodonta, Veneroida, Sphaeriacea, Corbiculoidea, Corbiculidae, Corbicula</ian_image_library:contains>
                    <ian_image_library:when>2010-07-30</ian_image_library:when>
                </ian_image_library:scene>
            </desc>
            <metadata id="metadata-iil-6ba7e1a8e0bd822489cb2822cd866d56">
                <rdf:RDF>
                <cc:Work
                rdf:about="">
                <dc:format>image/svg+xml</dc:format>
                <dc:type
                rdf:resource="http://purl.org/dc/dcmitype/StillImage" />
                <cc:license
                rdf:resource="http://creativecommons.org/licenses/by-sa/3.0/" />
                <dc:title>Corbicula fluminea (Asian Clam)</dc:title>
                <dc:date>2010-07-30</dc:date>
                <dc:creator>
                    <cc:Agent>
                        <dc:title></dc:title>
                    </cc:Agent>
                </dc:creator>
                <dc:rights>
                <cc:Agent>
                    <dc:title></dc:title>
                </cc:Agent>
                </dc:rights>
                <dc:publisher>
                <cc:Agent>
                    <dc:title>Integration and Application Network</dc:title>
                </cc:Agent>
                </dc:publisher>
                <dc:identifier>https://ian.umces.edu/media-library/corbicula-fluminea-asian-clam/</dc:identifier>
                <dc:source>https://ian.umces.edu/media-library/corbicula-fluminea-asian-clam/</dc:source>
                <dc:language>en-US</dc:language>
                <dc:subject>
                <rdf:Bag>
                    <rdf:li>golden clam, golden freshwater clam, prosperity clam, good luck clam, Mollusca, Bivalvia, Heterodonta, Veneroida, Sphaeriacea, Corbiculoidea, Corbiculidae, Corbicula</rdf:li>
                </rdf:Bag>
                </dc:subject>
                <dc:coverage></dc:coverage>
                <dc:description><p>Illustration of Corbicula fluminea.</p></dc:description>
                <dc:contributor>
                <cc:Agent>
                    <dc:title></dc:title>
                </cc:Agent>
                </dc:contributor>
            </cc:Work>
            <cc:License
                rdf:about="http://creativecommons.org/licenses/by-sa/3.0/">
                <cc:permits
                rdf:resource="http://creativecommons.org/ns#Reproduction" />
                <cc:permits
                rdf:resource="http://creativecommons.org/ns#Distribution" />
                <cc:requires
                rdf:resource="http://creativecommons.org/ns#Notice" />
                <cc:requires
                rdf:resource="http://creativecommons.org/ns#Attribution" />
                <cc:permits
                rdf:resource="http://creativecommons.org/ns#DerivativeWorks" />
                <cc:requires
                rdf:resource="http://creativecommons.org/ns#ShareAlike" />
            </cc:License>
            </rdf:RDF>
            </metadata>
            
<defs>
</defs>
<linearGradient id="ian_symbols_d9f68826e3ddc72499f698c39f668d40" gradientUnits="userSpaceOnUse" x1="45.8853" y1="349.0967" x2="474.0602" y2="91.7428" gradientTransform="matrix(1 0 0 -1 0 462.8613)">
	<stop  offset="0" style="stop-color:#BF832B"/>
	<stop  offset="0.0459" style="stop-color:#C0852E"/>
	<stop  offset="0.0908" style="stop-color:#C38C3A"/>
	<stop  offset="0.1353" style="stop-color:#C7974F"/>
	<stop  offset="0.1797" style="stop-color:#CFA76C"/>
	<stop  offset="0.2239" style="stop-color:#D8BA8F"/>
	<stop  offset="0.268" style="stop-color:#E3D2BB"/>
	<stop  offset="0.3113" style="stop-color:#F1EFEE"/>
	<stop  offset="0.3152" style="stop-color:#F2F2F2"/>
	<stop  offset="0.3294" style="stop-color:#EBE8E6"/>
	<stop  offset="0.3879" style="stop-color:#D6C8B9"/>
	<stop  offset="0.4505" style="stop-color:#C4AC92"/>
	<stop  offset="0.5165" style="stop-color:#B39370"/>
	<stop  offset="0.5866" style="stop-color:#A67F55"/>
	<stop  offset="0.6624" style="stop-color:#9D713F"/>
	<stop  offset="0.7468" style="stop-color:#96662F"/>
	<stop  offset="0.8464" style="stop-color:#926028"/>
	<stop  offset="1" style="stop-color:#915E26"/>
</linearGradient>
<path fill="url(#ian_symbols_d9f68826e3ddc72499f698c39f668d40)" d="M499.207,250.892c2.704-49.6-17.132-90.177-51.399-125.346c-18.938-19.838-41.48-34.265-59.52-55.007
	c-18.035-18.935-33.365-44.187-53.204-60.417C323.362-0.699,295.41,2.005,295.41,2.005c-20.742,1.804-43.285,4.508-61.32,16.234
	c-20.739,13.526-38.777,36.069-57.712,52.3c-45.99,40.581-106.392,71.748-148.774,116.83C1.457,215.325,1.165,238.506,0.061,286.69
	c-0.616,26.697,3.182,53.473,22.121,75.111c12.622,13.525,65.26,51.905,76.082,60.923c31.561,23.443,99.51,36.069,137.383,36.977
	c67.63,1.801,130.125-11.637,185.495-54.106C515.826,332.972,497.405,276.139,499.207,250.892z M460.549,229.7
	c-3.542,10.851-24.289,43.727-36.717,56.99c-12.422,13.264-88.354,46.28-88.354,46.28l2.297-21.803l-33.277,6.885l20.655-21.8
	l-52.784,5.736l45.898-24.1l-45.898,8.799l47.047-30.599l-8.033-8.032l25.244-18.359h-12.622l20.655-29.836l-12.622,2.296
	l20.65-28.394h-33.272l30.98-23.243l-17.215,1.148l18.362-25.244l-14.918-1.148l17.211-22.951l-17.211-5.737l17.211-19.507h-11.475
	l4.59-16.062l-11.475,3.44l5.736-18.92l-12.622,5.15l9.182-14.9L327.443,7.171c0,0,50.459,71.624,55.08,81.384
	c4.621,9.762,5.11,35.778,10.325,44.755c5.221,8.974,28.688,49.34,28.688,49.34S464.1,218.846,460.549,229.7z"/>
<linearGradient id="ian_symbols_19294573217a1a746d37b8f328e30fe3" gradientUnits="userSpaceOnUse" x1="246.7793" y1="340.21" x2="456.0522" y2="214.4269" gradientTransform="matrix(1 0 0 -1 0 462.8613)">
	<stop  offset="0" style="stop-color:#BF832B"/>
	<stop  offset="0.0459" style="stop-color:#C0852E"/>
	<stop  offset="0.0908" style="stop-color:#C38C3A"/>
	<stop  offset="0.1353" style="stop-color:#C7974F"/>
	<stop  offset="0.1797" style="stop-color:#CFA76C"/>
	<stop  offset="0.2239" style="stop-color:#D8BA8F"/>
	<stop  offset="0.268" style="stop-color:#E3D2BB"/>
	<stop  offset="0.3113" style="stop-color:#F1EFEE"/>
	<stop  offset="0.3152" style="stop-color:#F2F2F2"/>
	<stop  offset="0.3294" style="stop-color:#EBE8E6"/>
	<stop  offset="0.3879" style="stop-color:#D6C8B9"/>
	<stop  offset="0.4505" style="stop-color:#C4AC92"/>
	<stop  offset="0.5165" style="stop-color:#B39370"/>
	<stop  offset="0.5866" style="stop-color:#A67F55"/>
	<stop  offset="0.6624" style="stop-color:#9D713F"/>
	<stop  offset="0.7468" style="stop-color:#96662F"/>
	<stop  offset="0.8464" style="stop-color:#926028"/>
	<stop  offset="1" style="stop-color:#915E26"/>
</linearGradient>
<path fill="url(#ian_symbols_19294573217a1a746d37b8f328e30fe3)" d="M421.539,182.653c0,0-23.469-40.366-28.688-49.34c-5.215-8.977-5.703-34.993-10.324-44.755
	c-4.622-9.76-55.081-81.384-55.081-81.384l10.33,28.619l-9.183,14.9l12.622-5.15l-5.736,18.92l11.475-3.44l-4.59,16.062h11.475
	l-17.212,19.507l17.211,5.737l-17.211,22.951l14.918,1.148l-18.362,25.244l17.216-1.148l-30.981,23.243h33.273l-20.651,28.394
	l12.622-2.296l-20.655,29.836h12.622l-25.244,18.358l8.033,8.033l-47.047,30.6l45.898-8.799l-45.898,24.1l52.784-5.737l-20.655,21.8
	l33.277-6.885l-2.296,21.803c0,0,75.932-33.018,88.354-46.281c12.428-13.264,33.175-46.14,36.717-56.989
	C464.1,218.846,421.539,182.653,421.539,182.653z"/>
<linearGradient id="ian_symbols_38cf8339d5906864398a3299ef88bcf8" gradientUnits="userSpaceOnUse" x1="383.6094" y1="371.4043" x2="383.6454" y2="371.3947" gradientTransform="matrix(1 0 0 -1 0 462.8613)">
	<stop  offset="0" style="stop-color:#BF832B"/>
	<stop  offset="0.2788" style="stop-color:#E9E9E9"/>
	<stop  offset="0.5152" style="stop-color:#CCBFCE"/>
	<stop  offset="1" style="stop-color:#908991"/>
</linearGradient>
<path opacity="0.85" fill="url(#ian_symbols_38cf8339d5906864398a3299ef88bcf8)" enable-background="new    " d="M383.641,91.475l-0.021-0.033
	c0.004,0.014,0.008,0.025,0.015,0.04L383.641,91.475z"/>
<linearGradient id="ian_symbols_a8dce0e8973721c429d80f15ca245b4b" gradientUnits="userSpaceOnUse" x1="197.7358" y1="419.2539" x2="367.5863" y2="373.7144" gradientTransform="matrix(1 0 0 -1 0 462.8613)">
	<stop  offset="0" style="stop-color:#BF832B"/>
	<stop  offset="0.2788" style="stop-color:#E9E9E9"/>
	<stop  offset="0.5152" style="stop-color:#CCBFCE"/>
	<stop  offset="1" style="stop-color:#908991"/>
</linearGradient>
<path opacity="0.85" fill="url(#ian_symbols_a8dce0e8973721c429d80f15ca245b4b)" enable-background="new    " d="M353.837,102.329l-17.211-5.737l17.211-19.507h-11.475
	l4.59-16.062l-11.475,3.44l5.736-18.92l-12.622,5.15l9.183-14.9l-9.538-26.425l-3.172-4.701c0,0-27.248-5.785-41.229-4.473
	c-13.985,1.312-38.336,12.477-38.336,12.477l-7.534,3.871l-5.292,49.095l-20.939,25.624l20.939,34.793l94.161,11.995l15.078-12.363
	l-5.285-0.405L353.837,102.329z"/>
<linearGradient id="ian_symbols_b6f6cb57dce62f6445ab5f1d9ca916af" gradientUnits="userSpaceOnUse" x1="92.1914" y1="326.6523" x2="171.0697" y2="257.3143" gradientTransform="matrix(1 0 0 -1 0 462.8613)">
	<stop  offset="0.2112" style="stop-color:#9B5851"/>
	<stop  offset="0.2543" style="stop-color:#9D5E48"/>
	<stop  offset="0.3317" style="stop-color:#A06441"/>
	<stop  offset="0.5022" style="stop-color:#A1663F"/>
	<stop  offset="0.8333" style="stop-color:#BF832B"/>
</linearGradient>
<path opacity="0.35" fill="url(#ian_symbols_b6f6cb57dce62f6445ab5f1d9ca916af)" enable-background="new    " d="M237.965,16.541l-18.931,13.256l-50.637,47.86
	l-97.539,75.95c0,0-40.312,56.035-50.178,82.958c-9.871,26.929-6.652,71.063,10.676,90.027
	c17.328,18.96,39.313,38.508,39.313,38.508s-19.321-37.801-17.39-45.898c1.936-8.1,5.795-39.016,12.611-52.784
	c6.816-13.771,52.715-25.244,65.337-33.276c12.622-8.034,22.546-60.078,23.895-71.92c1.349-11.846,26.199-29.297,26.199-29.297
	s46.296-54.84,54.326-72.05C243.68,42.66,237.965,16.541,237.965,16.541z"/>
<linearGradient id="ian_symbols_dab1d1d34425a1b489979813b514b4ea" gradientUnits="userSpaceOnUse" x1="269.6152" y1="235.3945" x2="513.7018" y2="308.7108" gradientTransform="matrix(1 0 0 -1 0 462.8613)">
	<stop  offset="0" style="stop-color:#C8B671"/>
	<stop  offset="0.3964" style="stop-color:#77786A"/>
	<stop  offset="0.5501" style="stop-color:#7B716E"/>
	<stop  offset="0.6258" style="stop-color:#7F6C72"/>
	<stop  offset="0.882" style="stop-color:#1B1F23"/>
</linearGradient>
<path opacity="0.35" fill="url(#ian_symbols_dab1d1d34425a1b489979813b514b4ea)" enable-background="new    " d="M476.149,163.926
	c-17.998-28.287-70.171-75.699-70.171-75.699l-56.094-63.759c0,0-21.205-21.774-24.82-19.802c-1.091,0.597,2.975,9.366,9.159,21.289
	l-6.779-18.781c0,0,50.459,71.624,55.081,81.384c4.621,9.762,5.109,35.778,10.324,44.755c5.221,8.974,28.688,49.34,28.688,49.34
	s42.561,36.193,39.01,47.047c-3.542,10.851-24.289,43.727-36.717,56.99c-12.422,13.264-88.354,46.28-88.354,46.28l2.297-21.803
	l-33.277,6.885l20.655-21.8l-52.784,5.736l45.898-24.1l-45.898,8.799l47.047-30.599l-8.033-8.032l25.244-18.359h-12.622
	l20.655-29.836l-12.622,2.296l20.65-28.394h-33.272l30.98-23.243l-17.215,1.148l18.362-25.244l-10.603-0.816l-8.176,6.754
	c0,0-44.183,41.478-43.281,49.595c0.899,8.113,35.169,16.234,35.169,16.234L293.09,223.44l29.756,14.426l-40.58,13.529
	l-49.596,13.521c0,0,38.063,7.773,35.494,10.07c-7.941,7.101-24.836,22.203-30.201,27c-7.1,6.351,17.188,24.097,17.188,24.097
	l44.971,3.761c0,0-5.227,22.54,6.495,22.54c11.718,0,48.694-12.62,48.694-12.62s-45.091,64.026-42.382,73.04
	c2.708,9.015,45.082-4.509,67.629-15.33c22.548-10.821,87.469-80.255,107.312-119.932
	C507.706,237.868,494.14,192.213,476.149,163.926z"/>
<linearGradient id="ian_symbols_39fc2abd21b6684491adc84641c58af9" gradientUnits="userSpaceOnUse" x1="410.2393" y1="332.6123" x2="255.8401" y2="251.2214" gradientTransform="matrix(1 0 0 -1 0 462.8613)">
	<stop  offset="0" style="stop-color:#5D4B57"/>
	<stop  offset="0.0672" style="stop-color:#66545E"/>
	<stop  offset="0.2371" style="stop-color:#78666C"/>
	<stop  offset="0.3583" style="stop-color:#7F6C72"/>
	<stop  offset="1" style="stop-color:#77786A"/>
</linearGradient>
<path opacity="0.45" fill="url(#ian_symbols_39fc2abd21b6684491adc84641c58af9)" enable-background="new    " d="M421.539,182.755c0,0-23.469-40.366-28.688-49.343
	c-5.215-8.973-5.703-34.99-10.324-44.751c-4.622-9.761-55.081-81.385-55.081-81.385l10.33,28.616l-9.183,14.903l12.622-5.15
	l-5.736,18.92l11.475-3.444l-4.59,16.066h11.475l-17.211,19.507l17.211,5.737l-17.211,22.948l14.918,1.148l-18.362,25.244
	l17.216-1.145l-30.981,23.243h33.273l-20.651,28.393l12.622-2.296l-20.655,29.833h12.622l-25.244,18.363l8.033,8.028l-47.047,30.603
	l45.899-8.798l-45.899,24.096l52.784-5.736l-20.655,21.799l33.277-6.885l-2.296,21.803c0,0,75.932-33.019,88.354-46.277
	c12.428-13.264,33.175-46.139,36.717-56.994C464.1,218.948,421.539,182.755,421.539,182.755z"/>
<linearGradient id="ian_symbols_63f3be6c9f13c7d4551bf29dfbb1fb91" gradientUnits="userSpaceOnUse" x1="230.7524" y1="434.418" x2="351.1465" y2="434.418" gradientTransform="matrix(1 0 0 -1 0 462.8613)">
	<stop  offset="0" style="stop-color:#DAD7C6"/>
	<stop  offset="0.681" style="stop-color:#7F6C72"/>
</linearGradient>
<path fill="url(#ian_symbols_63f3be6c9f13c7d4551bf29dfbb1fb91)" d="M349.652,27.25c3.375-1.334,0.354-3.605-2.396-2.519c-29.354,11.652-85.405,15.615-111.075-4.895
	c-1.724-1.371-6.903,0.426-5.026,1.928C258.883,43.906,317.925,39.846,349.652,27.25z"/>
<linearGradient id="ian_symbols_cd8da5716237225451d057c39c92f6d9" gradientUnits="userSpaceOnUse" x1="205.4136" y1="407.4775" x2="369.5391" y2="407.4775" gradientTransform="matrix(1 0 0 -1 0 462.8613)">
	<stop  offset="0" style="stop-color:#DAD7C6"/>
	<stop  offset="0.681" style="stop-color:#7F6C72"/>
</linearGradient>
<path fill="url(#ian_symbols_cd8da5716237225451d057c39c92f6d9)" d="M356.206,63.723l0.127-0.354c-43.876,12.13-111.844-2.577-145.985-21.825
	c-1.207-0.682-5.591,1.042-4.851,1.461c39.721,22.397,117.362,36.502,164.02,17.455l0.022-0.058L356.206,63.723z"/>
<linearGradient id="ian_symbols_e32568318630ebe42946645db4bd9e69" gradientUnits="userSpaceOnUse" x1="356.2061" y1="402.4951" x2="376.4629" y2="402.4951" gradientTransform="matrix(1 0 0 -1 0 462.8613)">
	<stop  offset="0" style="stop-color:#DAD7C6"/>
	<stop  offset="0.681" style="stop-color:#7F6C72"/>
</linearGradient>
<path fill="url(#ian_symbols_e32568318630ebe42946645db4bd9e69)" d="M371.988,57.534c-4.769,2.395-10.062,4.29-15.655,5.835l-0.127,0.354l13.333-3.32l-0.022,0.058
	c2.181-0.89,4.37-1.765,6.419-2.792C378.111,56.576,372.914,57.067,371.988,57.534z"/>
<linearGradient id="ian_symbols_4f84f44b5946d6d4a507668a92a7b3b5" gradientUnits="userSpaceOnUse" x1="192.1089" y1="384.1084" x2="363.3682" y2="384.1084" gradientTransform="matrix(1 0 0 -1 0 462.8613)">
	<stop  offset="0" style="stop-color:#DAD7C6"/>
	<stop  offset="0.681" style="stop-color:#7F6C72"/>
</linearGradient>
<path fill="url(#ian_symbols_4f84f44b5946d6d4a507668a92a7b3b5)" d="M361.363,100.645c-25.267,8.492-60.312,1.257-82.307,2.522
	c-36.351,2.096-75.099-3.689-82.556-51.967l-4.392,3.204c10.169,59.188,63.23,49.431,103.575,50.094
	c19.233,0.313,45.61,4.807,66.77-1.669l0.915-1.407L361.363,100.645z"/>
<linearGradient id="ian_symbols_2ab72febd29fe9048107329e0b52bb5f" gradientUnits="userSpaceOnUse" x1="388.9238" y1="386.6318" x2="392.7852" y2="386.6318" gradientTransform="matrix(1 0 0 -1 0 462.8613)">
	<stop  offset="0" style="stop-color:#DAD7C6"/>
	<stop  offset="0.681" style="stop-color:#7F6C72"/>
</linearGradient>
<path fill="url(#ian_symbols_2ab72febd29fe9048107329e0b52bb5f)" d="M392.774,74.373c0.203-0.517-2.465-0.382-3.851,0.35c0.723,1.324,1.382,2.562,1.973,3.674
	C391.524,77.07,392.22,75.831,392.774,74.373z"/>
<linearGradient id="ian_symbols_1e693ede1356d4e481194ee62ec45ad8" gradientUnits="userSpaceOnUse" x1="361.3594" y1="374.1094" x2="390.8975" y2="374.1094" gradientTransform="matrix(1 0 0 -1 0 462.8613)">
	<stop  offset="0.319" style="stop-color:#7F6C72"/>
	<stop  offset="1" style="stop-color:#DAD7C6"/>
</linearGradient>
<path fill="url(#ian_symbols_1e693ede1356d4e481194ee62ec45ad8)" d="M390.897,78.397c-0.592-1.112-1.25-2.351-1.974-3.674c-0.355,0.193-0.659,0.419-0.761,0.697
	c-5.201,13.587-14.938,21.114-26.804,25.152l2.008,0.784l-0.915,1.425C374.339,99.103,384.501,91.799,390.897,78.397z"/>
<linearGradient id="ian_symbols_e95456d0227a7e04d935a39d9063cb12" gradientUnits="userSpaceOnUse" x1="397.6523" y1="354.4365" x2="417.2559" y2="354.4365" gradientTransform="matrix(1 0 0 -1 0 462.8613)">
	<stop  offset="0" style="stop-color:#DAD7C6"/>
	<stop  offset="0.681" style="stop-color:#7F6C72"/>
</linearGradient>
<path fill="url(#ian_symbols_e95456d0227a7e04d935a39d9063cb12)" d="M417.012,99.631c1.356-2.019-3.327-1.778-4.33-0.288c-4.093,6.076-9.314,11.222-15.029,15.833
	c0.207,1.21,0.43,2.376,0.663,3.502C405.426,113.292,411.946,107.14,417.012,99.631z"/>
<linearGradient id="ian_symbols_02bfb0ede9e7aaf4f52829f88bade17f" gradientUnits="userSpaceOnUse" x1="171.353" y1="348.2783" x2="342.499" y2="348.2783" gradientTransform="matrix(1 0 0 -1 0 462.8613)">
	<stop  offset="0" style="stop-color:#DAD7C6"/>
	<stop  offset="0.681" style="stop-color:#7F6C72"/>
</linearGradient>
<path fill="url(#ian_symbols_02bfb0ede9e7aaf4f52829f88bade17f)" d="M275.896,152.434c-27.891,3.324-65.163,6.827-80.397-26.52c-4.177-9.137-4.68-20.914-8.131-30.565
	c-3.08-8.605-8.033-16.591-12.4-24.544l-3.615,3.563c7.88,15.483,14.291,29.872,18.005,47.633
	c2.482,11.871,10.14,18.785,18.498,25.616c20.01,16.354,51.643,9.892,74.128,7.213c20.841-2.486,39.801-1.761,58.726-6.211
	l1.789-2.767C320.961,151.861,298.133,149.78,275.896,152.434z"/>
<linearGradient id="ian_symbols_8b515da664b26c1435a0d58d6b62f738" gradientUnits="userSpaceOnUse" x1="340.7051" y1="331.0459" x2="398.3145" y2="331.0459" gradientTransform="matrix(1 0 0 -1 0 462.8613)">
	<stop  offset="0.319" style="stop-color:#7F6C72"/>
	<stop  offset="1" style="stop-color:#DAD7C6"/>
</linearGradient>
<path fill="url(#ian_symbols_8b515da664b26c1435a0d58d6b62f738)" d="M398.314,118.679c-0.233-1.126-0.456-2.292-0.663-3.502c-11.599,9.36-25.424,16.332-37.286,23.093
	c-5.825,3.324-11.799,5.657-17.867,7.374l-1.793,2.811c8.543-2.042,17.082-5.143,25.779-10.104
	C376.836,132.449,388.189,126.355,398.314,118.679z"/>
<linearGradient id="ian_symbols_ef7dd06dee5a3f04ed5b23ec93dacb0f" gradientUnits="userSpaceOnUse" x1="153.9214" y1="315.8281" x2="344.5781" y2="315.8281" gradientTransform="matrix(1 0 0 -1 0 462.8613)">
	<stop  offset="0" style="stop-color:#DAD7C6"/>
	<stop  offset="0.681" style="stop-color:#7F6C72"/>
</linearGradient>
<path fill="url(#ian_symbols_ef7dd06dee5a3f04ed5b23ec93dacb0f)" d="M259.742,199.886c-58.915-8.062-104.737-49.504-100.994-115.61l-4.662,3.033
	c-1.589,33.696,8.251,63.233,33.065,85.518c28.67,25.747,67.455,29.166,102.794,33.346c17.16,2.034,35.341,3.962,53.332,3.564
	l1.301-2.044C316.267,208.655,287.086,203.632,259.742,199.886z"/>
<linearGradient id="ian_symbols_52817a565441cf44a1455aea049533df" gradientUnits="userSpaceOnUse" x1="419.8408" y1="324.3916" x2="432.127" y2="324.3916" gradientTransform="matrix(1 0 0 -1 0 462.8613)">
	<stop  offset="0.2147" style="stop-color:#DAD7C6"/>
	<stop  offset="1" style="stop-color:#7F6C72"/>
</linearGradient>
<path fill="url(#ian_symbols_52817a565441cf44a1455aea049533df)" d="M432.127,110.224c0.022-1.083-4.526-0.317-4.562,1.326c-0.344,17.525-2.385,34.925-7.725,49.967
	c1.075,2.005,2.092,3.904,3.059,5.701C429.853,149.059,431.792,127.267,432.127,110.224z"/>
<linearGradient id="ian_symbols_b0f20fbfb05c8ad4c5cce53aa46f8b32" gradientUnits="userSpaceOnUse" x1="343.2773" y1="277.2344" x2="422.8984" y2="277.2344" gradientTransform="matrix(1 0 0 -1 0 462.8613)">
	<stop  offset="0.319" style="stop-color:#7F6C72"/>
	<stop  offset="1" style="stop-color:#DAD7C6"/>
</linearGradient>
<path fill="url(#ian_symbols_b0f20fbfb05c8ad4c5cce53aa46f8b32)" d="M422.898,167.217c-0.967-1.797-1.982-3.696-3.059-5.701c-7.436,20.958-21.344,37.308-46.461,42.765
	c-9.425,2.048-19.062,3.08-28.801,3.412l-1.301,2.044c18.472-0.416,36.738-3.291,53.489-11.091
	C409.413,192.76,417.603,181.038,422.898,167.217z"/>
<linearGradient id="ian_symbols_8e395a0636a2e444bd89d935824f8ace" gradientUnits="userSpaceOnUse" x1="438.2881" y1="307.1631" x2="450.5498" y2="307.1631" gradientTransform="matrix(1 0 0 -1 0 462.8613)">
	<stop  offset="0.319" style="stop-color:#7F6C72"/>
	<stop  offset="1" style="stop-color:#DAD7C6"/>
</linearGradient>
<path fill="url(#ian_symbols_8e395a0636a2e444bd89d935824f8ace)" d="M450.519,129.329c-0.035-1.673-4.6-0.667-4.562,1.341c0.335,18.119-2.297,34.371-7.669,48.757
	c1.086,1.086,2.224,2.249,3.434,3.484C448.055,166.966,450.883,148.917,450.519,129.329z"/>
<linearGradient id="ian_symbols_4839028f076b6514819412f88a3dd255" gradientUnits="userSpaceOnUse" x1="128.0342" y1="276.2471" x2="316.6758" y2="276.2471" gradientTransform="matrix(1 0 0 -1 0 462.8613)">
	<stop  offset="0" style="stop-color:#DAD7C6"/>
	<stop  offset="0.681" style="stop-color:#7F6C72"/>
</linearGradient>
<path fill="url(#ian_symbols_4839028f076b6514819412f88a3dd255)" d="M261.727,264.665c-39.722-2.377-79.517-15.936-108.604-46.723
	c-25.288-26.756-21.935-73.96-19.828-112.967l-4.406,2.525c-1.757,43.519-3.878,90.428,27.963,120.366
	c33.896,31.877,80.889,40.369,124.113,40.388c9.354,0.004,18.781-0.839,28.186-2.344l7.526-5.38
	C299.012,264.213,280.93,265.815,261.727,264.665z"/>
<linearGradient id="ian_symbols_effc60188c79b204d1693da4522c8627" gradientUnits="userSpaceOnUse" x1="309.1484" y1="240.1914" x2="441.7207" y2="240.1914" gradientTransform="matrix(1 0 0 -1 0 462.8613)">
	<stop  offset="0.319" style="stop-color:#7F6C72"/>
	<stop  offset="1" style="stop-color:#7F6C72"/>
</linearGradient>
<path fill="url(#ian_symbols_effc60188c79b204d1693da4522c8627)" d="M441.721,182.912c-1.21-1.235-2.348-2.398-3.434-3.484c-10.045,26.888-29.844,47.135-58.958,60.019
	c-21.082,9.332-41.573,16.693-62.654,21.086l-7.526,5.38c30.548-4.892,60.891-17.047,87.733-32.144
	C418.667,221.518,433.294,204.081,441.721,182.912z"/>
<linearGradient id="ian_symbols_ef58fd9f184225647d17ef6c61644b12" gradientUnits="userSpaceOnUse" x1="463.2314" y1="277.0869" x2="477.7109" y2="277.0869" gradientTransform="matrix(1 0 0 -1 0 462.8613)">
	<stop  offset="0" style="stop-color:#DAD7C6"/>
	<stop  offset="0.9693" style="stop-color:#7F6C72"/>
</linearGradient>
<path fill="url(#ian_symbols_ef58fd9f184225647d17ef6c61644b12)" d="M470.026,151.621c-0.644-1.177-4.95,0.405-4.527,1.185c12.115,22.328,8.441,44.277-2.268,64.126
	c0.883,1.177,1.677,2.318,2.377,3.416C478.161,199.171,483.031,175.567,470.026,151.621z"/>
<linearGradient id="ian_symbols_51c0144ff0985034cde39849d8a2d568" gradientUnits="userSpaceOnUse" x1="341.0625" y1="150.6338" x2="343.0117" y2="150.6338" gradientTransform="matrix(1 0 0 -1 0 462.8613)">
	<stop  offset="0" style="stop-color:#DAD7C6"/>
	<stop  offset="0.681" style="stop-color:#7F6C72"/>
</linearGradient>
<path fill="url(#ian_symbols_51c0144ff0985034cde39849d8a2d568)" d="M341.063,312.495c0.655-0.156,1.301-0.335,1.949-0.499v-0.036
	C342.362,312.14,341.718,312.323,341.063,312.495z"/>
<linearGradient id="ian_symbols_98515519a84984c4596cec67611cf696" gradientUnits="userSpaceOnUse" x1="94.2437" y1="237.2529" x2="341.0615" y2="237.2529" gradientTransform="matrix(1 0 0 -1 0 462.8613)">
	<stop  offset="0" style="stop-color:#DAD7C6"/>
	<stop  offset="0.681" style="stop-color:#7F6C72"/>
</linearGradient>
<path fill="url(#ian_symbols_98515519a84984c4596cec67611cf696)" d="M309.097,318.054l0.999-1.031c-16.496,1.191-33.164,0.879-48.713,0.619
	c-28.718-0.484-56.939,0.592-82.391-14.396c-19.558-11.515-39.812-27.136-56.455-42.367
	c-31.396-28.739-25.762-92.159-21.869-129.912c0.069-0.71-4.389-0.222-4.534,1.188c-2.719,26.374-2.555,52.94,0.82,79.249
	c3.612,28.142,13.69,46.088,36.27,63.515c21.497,16.587,43.851,35.441,70.95,41.795c25.71,6.023,56.52,3.316,82.883,2.861
	c19.23-0.334,37.09-2.625,54.005-7.079c-7.733,1.854-15.717,3.084-23.777,3.899L309.097,318.054z"/>
<linearGradient id="ian_symbols_94a83ec8f10ce5c4e99c441fb9b12a3f" gradientUnits="userSpaceOnUse" x1="343.0117" y1="153.2437" x2="357.832" y2="153.2437" gradientTransform="matrix(1 0 0 -1 0 462.8613)">
	<stop  offset="0" style="stop-color:#DAD7C6"/>
	<stop  offset="0.681" style="stop-color:#7F6C72"/>
</linearGradient>
<path fill="url(#ian_symbols_94a83ec8f10ce5c4e99c441fb9b12a3f)" d="M343.012,311.96v0.036c5.066-1.29,10.021-2.868,14.82-4.757
	C352.969,309.015,348.034,310.582,343.012,311.96z"/>
<linearGradient id="ian_symbols_dfd273536a42918419a15729d337cbd4" gradientUnits="userSpaceOnUse" x1="309.0957" y1="145.6367" x2="317.2832" y2="145.6367" gradientTransform="matrix(1 0 0 -1 0 462.8613)">
	<stop  offset="0" style="stop-color:#DAD7C6"/>
	<stop  offset="0.681" style="stop-color:#7F6C72"/>
</linearGradient>
<path fill="url(#ian_symbols_dfd273536a42918419a15729d337cbd4)" d="M317.283,316.396c-2.389,0.244-4.789,0.451-7.188,0.627l-0.999,1.031L317.283,316.396z"/>
<linearGradient id="ian_symbols_e13aad3c8019ea74d90669f9a49eaefe" gradientUnits="userSpaceOnUse" x1="357.832" y1="200.7764" x2="465.6094" y2="200.7764" gradientTransform="matrix(1 0 0 -1 0 462.8613)">
	<stop  offset="0.319" style="stop-color:#7F6C72"/>
	<stop  offset="1" style="stop-color:#DAD7C6"/>
</linearGradient>
<path fill="url(#ian_symbols_e13aad3c8019ea74d90669f9a49eaefe)" d="M424.502,263.422c-17.222,15.688-37.23,29.636-58.219,40.114c-2.744,1.371-5.583,2.576-8.451,3.703
	c20.017-7.309,38.813-17.998,57.096-32.639c17.79-14.248,38.1-33.029,50.682-54.254c-0.7-1.097-1.494-2.238-2.377-3.416
	C453.792,234.457,438.87,250.349,424.502,263.422z"/>
<linearGradient id="ian_symbols_d240141588a79fc43135f990c624127b" gradientUnits="userSpaceOnUse" x1="312.6191" y1="70.6157" x2="328.3965" y2="70.6157" gradientTransform="matrix(1 0 0 -1 0 462.8613)">
	<stop  offset="0" style="stop-color:#DAD7C6"/>
	<stop  offset="0.681" style="stop-color:#7F6C72"/>
</linearGradient>
<path fill="url(#ian_symbols_d240141588a79fc43135f990c624127b)" d="M320.473,392.582c2.715-0.487,5.348-1.104,7.924-1.789c-5.2,1.155-10.469,2.104-15.777,2.905
	C315.242,393.358,317.873,393.053,320.473,392.582z"/>
<linearGradient id="ian_symbols_e5545b47b1925e8479a3fa5f502d3a03" gradientUnits="userSpaceOnUse" x1="48.6133" y1="184.8779" x2="312.6182" y2="184.8779" gradientTransform="matrix(1 0 0 -1 0 462.8613)">
	<stop  offset="0" style="stop-color:#DAD7C6"/>
	<stop  offset="0.681" style="stop-color:#7F6C72"/>
</linearGradient>
<path fill="url(#ian_symbols_e5545b47b1925e8479a3fa5f502d3a03)" d="M223.316,391.868c-31.422-2.092-61.699-4.016-89.641-20.102
	c-21.737-12.513-41.984-27.632-59.304-45.805c-19.729-20.714-22.295-43.313-21.027-70.684c1.483-32.001-0.467-64.524,9.287-95.417
	c0.292-0.915-4.017-0.368-4.374,0.769c-9.855,31.225-7.428,63.537-9.346,95.833c-2.03,34.185,6.131,56.666,30.497,80.31
	c21.278,20.648,48.523,38.912,76.727,48.279c31.152,10.348,66.908,9.031,99.314,10.967c19.947,1.192,38.894,0.445,57.169-2.32
	C283.24,397.524,252.6,393.817,223.316,391.868z"/>
<linearGradient id="ian_symbols_b77783189dd6b674915a3785a47e431d" gradientUnits="userSpaceOnUse" x1="328.3965" y1="169.4683" x2="495.208" y2="169.4683" gradientTransform="matrix(1 0 0 -1 0 462.8613)">
	<stop  offset="0.319" style="stop-color:#7F6C72"/>
	<stop  offset="1" style="stop-color:#7F6C72"/>
</linearGradient>
<path fill="url(#ian_symbols_b77783189dd6b674915a3785a47e431d)" d="M494.118,196.372c-0.175-0.952-4.637,0.058-4.439,1.188c4.921,27.945-7.888,51.542-19.172,76.348
	c-12.421,27.272-32.481,48.396-52.113,70.553c-11.527,13.013-27.299,19.444-42.778,26.354
	c-16.113,7.194-30.348,15.486-47.219,19.978c29.057-6.462,56.513-18.508,83.631-36.937c11.447-7.777,19.707-20.849,29.089-30.828
	c11.021-11.707,20.119-24.289,27.963-38.311C483.84,258.341,499.52,227.102,494.118,196.372z"/>
<linearGradient id="ian_symbols_311fbe5f9ae46b24a150b59917e5fd54" gradientUnits="userSpaceOnUse" x1="11.6006" y1="152.2529" x2="498.7061" y2="152.2529" gradientTransform="matrix(1 0 0 -1 0 462.8613)">
	<stop  offset="0" style="stop-color:#DAD7C6"/>
	<stop  offset="0.681" style="stop-color:#7F6C72"/>
</linearGradient>
<path fill="url(#ian_symbols_311fbe5f9ae46b24a150b59917e5fd54)" d="M494.271,247.731c-2.101,28.021-8.689,54.365-21.941,79.278
	c-14.252,26.8-36.376,43.369-60.985,59.774c-14.771,9.844-26.65,20.593-42.786,28.63c-17.812,8.871-37.382,13.62-57.022,16.092
	c-38.748,4.873-80.178,7.188-118.923,1.775c-28.739-4.011-57.949-12.608-82.715-27.785c-27.751-17.015-47.609-45.122-69.263-68.755
	c-20.805-22.7-23.637-48.678-23.953-78.059c-0.215-20.17,4.296-33.069,16.525-48.582c6.721-8.54,8.992-16.795,8.802-27.5
	c-0.025-1.411-4.464-0.54-4.436,1.188c0.354,19.547-13.063,29.501-21.65,45.254c-6.667,12.221-3.682,32.125-3.502,45.422
	c0.419,31.338,13.15,51.636,33.394,74.291c22.16,24.804,42.848,49.217,72.189,65.753c27.82,15.68,64.531,21.563,95.938,23.637
	c67.13,4.43,141.025-2.22,195.048-45.49c22.27-17.842,44.146-30.86,60.947-54.883c18.457-26.39,26.396-58.944,28.766-90.597
	C498.842,245.358,494.373,246.233,494.271,247.731z"/>
</svg>
