<?xml version="1.0" standalone="no"?>
<!DOCTYPE svg PUBLIC "-//W3C//DTD SVG 20010904//EN"
 "http://www.w3.org/TR/2001/REC-SVG-20010904/DTD/svg10.dtd">
<svg version="1.0" xmlns="http://www.w3.org/2000/svg"
 width="1536.000000pt" height="1091.000000pt" viewBox="0 0 1536.000000 1091.000000"
 preserveAspectRatio="xMidYMid meet">
<metadata>
Created by potrace 1.16, written by Peter Selinger 2001-2019
</metadata>
<g transform="translate(0.000000,1091.000000) scale(0.100000,-0.100000)"
fill="#000000" stroke="none">
<path d="M1700 10899 c0 -22 183 -390 275 -549 180 -315 332 -515 666 -880
164 -180 203 -225 354 -420 263 -339 644 -792 904 -1075 81 -88 212 -236 291
-330 208 -245 327 -379 575 -649 508 -554 698 -766 915 -1026 193 -231 418
-484 641 -721 234 -249 259 -293 205 -356 -23 -27 -29 -28 -128 -32 -288 -10
-1102 60 -1688 145 -168 24 -447 59 -620 79 -528 58 -1154 144 -1680 229 -287
47 -593 89 -950 131 -332 39 -433 54 -605 89 -233 49 -787 121 -833 110 -70
-19 75 -67 328 -109 85 -14 299 -53 475 -85 176 -33 440 -78 586 -99 146 -22
337 -54 424 -71 188 -37 1324 -228 1820 -306 357 -56 482 -77 545 -94 19 -5
139 -21 265 -35 127 -14 273 -35 325 -46 113 -24 266 -51 410 -74 58 -9 164
-36 235 -60 152 -51 260 -74 520 -110 203 -28 364 -57 405 -73 64 -25 100
-115 67 -166 -9 -14 -43 -39 -74 -56 -32 -17 -139 -89 -238 -161 -322 -234
-830 -570 -1400 -924 -886 -551 -1719 -1109 -2060 -1378 -333 -264 -438 -344
-745 -574 -449 -336 -551 -416 -647 -507 -86 -81 -100 -106 -59 -106 53 0 233
114 554 350 107 78 311 223 455 322 286 197 320 222 387 283 68 62 210 157
475 320 530 325 1231 784 1465 959 63 47 149 102 190 123 105 52 257 144 380
228 161 111 314 206 487 301 236 130 385 219 507 302 176 119 561 295 676 309
117 14 454 -71 505 -127 16 -17 15 -19 -7 -33 -15 -10 -65 -17 -138 -22 -163
-10 -389 -60 -423 -94 -16 -16 3 -48 71 -117 80 -81 152 -117 277 -139 120
-21 461 -52 717 -65 114 -6 213 -12 220 -14 7 -3 25 -7 41 -10 15 -4 27 -12
27 -19 0 -18 -54 -69 -157 -146 -134 -101 -145 -141 -63 -226 23 -24 43 -57
50 -82 14 -55 24 -57 214 -50 317 12 663 74 883 158 49 19 65 21 75 11 9 -9 5
-19 -21 -46 -51 -53 -119 -85 -207 -97 -43 -6 -130 -24 -194 -41 -170 -45
-279 -68 -331 -68 -110 0 -143 -45 -70 -93 62 -41 112 -50 245 -43 254 14
1136 140 1230 175 39 15 83 14 109 -4 31 -20 142 -35 272 -35 131 0 284 -15
298 -29 21 -21 -103 -40 -468 -71 -765 -65 -1895 -237 -2122 -322 -45 -17 -54
-24 -67 -61 -23 -65 -28 -142 -16 -267 10 -108 17 -148 69 -390 14 -64 24
-163 31 -305 10 -226 23 -295 67 -353 35 -47 58 -40 109 35 102 150 127 336
84 633 -20 138 -24 218 -14 257 11 40 103 55 434 73 499 27 1050 99 1456 189
197 44 333 95 704 266 333 153 466 210 551 236 l70 21 52 -26 c93 -45 257
-213 257 -263 0 -28 -82 -102 -265 -238 -313 -233 -538 -392 -642 -451 -352
-203 -562 -384 -718 -619 -137 -206 -192 -414 -130 -497 56 -74 254 -180 383
-204 149 -28 250 -55 532 -145 363 -115 421 -136 615 -224 189 -86 274 -113
370 -122 96 -8 145 12 145 58 0 44 -37 95 -113 156 -132 107 -310 215 -532
323 -188 91 -307 134 -445 160 -189 35 -255 85 -217 164 17 37 46 60 207 166
58 38 137 96 175 130 39 34 126 105 195 158 163 126 247 207 388 372 64 74
177 198 252 275 75 77 149 157 164 178 37 48 65 48 205 1 205 -69 312 -134
329 -198 12 -43 -5 -110 -92 -371 -128 -380 -151 -524 -151 -935 0 -258 1
-279 23 -347 39 -125 121 -183 256 -183 164 0 665 168 828 277 46 30 175 101
288 158 372 188 705 389 741 448 10 18 19 49 19 70 0 76 -57 74 -320 -13 -182
-60 -429 -157 -623 -244 -81 -36 -177 -76 -213 -88 -45 -14 -79 -34 -107 -61
-22 -21 -51 -43 -64 -48 -63 -24 -146 1 -164 48 -12 32 -7 59 31 178 55 167
78 306 105 615 18 206 36 314 59 358 25 49 74 59 356 71 220 10 308 26 419 77
140 64 345 242 467 404 103 136 262 474 306 650 21 80 36 412 38 825 l1 200
77 53 c83 56 184 152 226 216 58 86 22 87 -138 2 -67 -35 -137 -67 -156 -71
-57 -10 -94 23 -158 140 -69 129 -145 227 -244 320 -166 154 -345 245 -483
245 -21 0 -44 9 -62 24 -26 23 -28 30 -31 113 -3 66 4 129 26 253 37 199 50
308 61 502 15 267 54 271 318 30 371 -338 890 -741 1080 -838 68 -35 73 -36
96 -21 32 21 51 69 43 111 -20 104 -209 293 -836 836 -657 569 -734 631 -849
689 -101 51 -163 51 -352 0 l-78 -21 -44 -77 c-126 -221 -147 -346 -147 -876
0 -381 -9 -518 -35 -544 -13 -13 -40 -16 -138 -15 -185 2 -393 51 -434 102
-43 53 -100 152 -208 362 -67 129 -160 299 -207 376 -90 151 -121 229 -116
291 3 33 6 38 30 41 23 3 30 -2 39 -25 15 -41 142 -167 308 -306 l144 -121 96
-22 c68 -16 99 -20 108 -12 24 20 93 133 93 152 0 32 -57 111 -133 183 -97 92
-208 176 -417 318 -96 65 -250 174 -342 242 -203 150 -311 219 -443 283 -134
65 -197 85 -273 85 -56 0 -66 -3 -84 -25 -31 -38 -21 -114 29 -227 23 -51 116
-224 206 -385 234 -417 341 -615 497 -923 163 -321 200 -412 200 -491 0 -53
-3 -60 -39 -95 -110 -104 -317 -107 -516 -6 -142 71 -240 154 -399 341 -119
139 -213 223 -430 385 -301 226 -547 367 -911 524 -286 124 -412 186 -561 277
-227 139 -289 160 -404 136 -88 -19 -274 -106 -290 -136 -25 -47 28 -199 94
-268 37 -40 68 -57 118 -66 22 -4 56 -23 82 -46 51 -43 83 -56 177 -69 75 -10
113 -27 149 -66 13 -14 61 -44 105 -65 44 -22 119 -64 167 -94 48 -30 123 -68
165 -86 135 -54 196 -87 278 -149 88 -67 263 -158 485 -251 215 -91 418 -198
469 -247 42 -40 43 -43 29 -65 -24 -37 -99 -78 -154 -84 -41 -5 -73 2 -190 40
-78 25 -181 50 -229 56 -141 18 -278 66 -635 225 -373 167 -593 244 -701 248
-80 2 -90 -9 -87 -96 3 -82 -8 -93 -49 -49 -55 59 -242 132 -336 132 -79 0
-102 -21 -102 -92 1 -29 5 -79 9 -110 8 -55 8 -58 -13 -58 -12 0 -72 21 -134
46 -215 89 -508 145 -772 147 l-150 2 -68 -33 c-95 -47 -105 -76 -52 -147 39
-52 113 -85 227 -100 103 -13 124 -24 107 -56 -17 -33 -90 -42 -227 -29 -302
28 -478 149 -857 585 -77 88 -227 248 -335 355 -138 138 -225 235 -297 330
-109 145 -182 224 -366 393 -64 60 -145 143 -179 185 -142 175 -340 394 -1044
1152 -165 179 -381 420 -479 535 -249 293 -438 505 -606 680 -182 189 -240
256 -387 452 -65 87 -165 214 -222 283 -282 343 -418 527 -552 747 -85 139
-157 232 -158 202z"/>
</g>
</svg>
