
        <svg xmlns:rdf="http://www.w3.org/1999/02/22-rdf-syntax-ns#" xmlns="http://www.w3.org/2000/svg" xmlns:cc="http://creativecommons.org/ns#" xmlns:xlink="http://www.w3.org/1999/xlink" xmlns:dc="http://purl.org/dc/elements/1.1/" x="0px" y="0px" width="501" height="429" viewBox="0 0 501 429" xml:space="preserve">
            <title>Umbonium vestiarum (Button Snail)</title>
            <desc xmlns:ian_image_library="https://ian.umces.edu/media-library/">
                <ian_image_library:title>Umbonium vestiarum (Button Snail)</ian_image_library:title>
                <ian_image_library:descr>Illustration of Umbonium vestiarum (Button Snail)</ian_image_library:descr>
                <ian_image_library:scene>
                    <ian_image_library:contains>button, top, snail, sea, snail, marine, Mollusca, Gastropoda, Archeogastropoda, Trochidae, Umbonium, vestiarum</ian_image_library:contains>
                    <ian_image_library:when>2008-12-19</ian_image_library:when>
                </ian_image_library:scene>
            </desc>
            <metadata id="metadata-iil-54719ac7124d8af4514d0af3de98a369">
                <rdf:RDF>
                <cc:Work
                rdf:about="">
                <dc:format>image/svg+xml</dc:format>
                <dc:type
                rdf:resource="http://purl.org/dc/dcmitype/StillImage" />
                <cc:license
                rdf:resource="http://creativecommons.org/licenses/by-sa/3.0/" />
                <dc:title>Umbonium vestiarum (Button Snail)</dc:title>
                <dc:date>2008-12-19</dc:date>
                <dc:creator>
                    <cc:Agent>
                        <dc:title></dc:title>
                    </cc:Agent>
                </dc:creator>
                <dc:rights>
                <cc:Agent>
                    <dc:title></dc:title>
                </cc:Agent>
                </dc:rights>
                <dc:publisher>
                <cc:Agent>
                    <dc:title>Integration and Application Network</dc:title>
                </cc:Agent>
                </dc:publisher>
                <dc:identifier>https://ian.umces.edu/media-library/umbonium-vestiarum-button-snail/</dc:identifier>
                <dc:source>https://ian.umces.edu/media-library/umbonium-vestiarum-button-snail/</dc:source>
                <dc:language>en-US</dc:language>
                <dc:subject>
                <rdf:Bag>
                    <rdf:li>button, top, snail, sea, snail, marine, Mollusca, Gastropoda, Archeogastropoda, Trochidae, Umbonium, vestiarum</rdf:li>
                </rdf:Bag>
                </dc:subject>
                <dc:coverage></dc:coverage>
                <dc:description>Illustration of Umbonium vestiarum (Button Snail)</dc:description>
                <dc:contributor>
                <cc:Agent>
                    <dc:title></dc:title>
                </cc:Agent>
                </dc:contributor>
            </cc:Work>
            <cc:License
                rdf:about="http://creativecommons.org/licenses/by-sa/3.0/">
                <cc:permits
                rdf:resource="http://creativecommons.org/ns#Reproduction" />
                <cc:permits
                rdf:resource="http://creativecommons.org/ns#Distribution" />
                <cc:requires
                rdf:resource="http://creativecommons.org/ns#Notice" />
                <cc:requires
                rdf:resource="http://creativecommons.org/ns#Attribution" />
                <cc:permits
                rdf:resource="http://creativecommons.org/ns#DerivativeWorks" />
                <cc:requires
                rdf:resource="http://creativecommons.org/ns#ShareAlike" />
            </cc:License>
            </rdf:RDF>
            </metadata>
            
 <defs></defs>
 <linearGradient id="ian_symbols_75e6c33146b39364614c9e8ebb2ad5c7" y2="10.313" gradientUnits="userSpaceOnUse" x2="212.47" y1="424.79" x1="285.56">
  <stop stop-color="#E6D8B7" offset=".0506"/>
  <stop stop-color="#DBCBAD" offset=".1348"/>
  <stop stop-color="#D1C2A2" offset=".191"/>
  <stop stop-color="#C0AF8C" offset=".2865"/>
  <stop stop-color="#C2AF90" offset=".4438"/>
  <stop stop-color="#857356" offset=".6685"/>
  <stop stop-color="#5E483A" offset=".9045"/>
 </linearGradient>
 <path d="m107.99 112.12l-7.593 5.911-6.739 10.957-1.683 5.058-3.375 9.262s-5.887 4.228-5.9 4.228c-9.851 7.021-18.567 14.725-21.913 26.973 0 0-3.351 6.703-3.375 6.736-4.326 8.666-10.835 16.289-16.025 24.447l-5.057 10.128-2.522 8.429-6.753 3.365-2.521 5.071v8.429l-1.693 7.603-4.208 2.512-7.59 3.365s-6.696 6.702-6.75 6.75c-8.554 8.564-2.176 20.426 2.533 28.665l2.535 6.75.839 8.429c4.557 7.976 8.927 16.147 14.519 23.466 4.326 5.66 14.245 10.074 17.512 15.294 0 0 4.17 6.682 4.214 6.771 4.173 6.668 11.743 12.762 18.571 16.519 2.098 1.179 8.063 2.12 9.251 3.711l5.071 6.729 5.044 5.904 7.592 5.063 6.74 1.686 5.9 5.044 5.911 3.385 10.954 6.757 7.583.826 9.275 1.686 8.422 5.897 5.904.854 6.757 3.364 5.897 3.385h4.204l6.75-.853h8.435c9.188 3.825 19.16 5.612 29.011 6.662 11.482 1.225 19.214 3.805 29.167-3.298 0 0 8.401 1.68 8.422 1.706 10.981 2.181 20.818 2.14 32.037-.853l6.743-2.539s6.729-2.512 6.75-2.532c8.835-3.297 19.979-2.925 29.504-6.729l7.583-.853 9.262-2.532 5.071-5.044 3.371-3.386 9.275-3.364s7.569-4.197 7.583-4.218c6.675-3.697 15.294-4.896 22.477-9.945 7.035-4.916 13.818-9.547 21.347-13.649l5.924-4.218 5.897-7.582 5.058-8.437 6.729-5.064 5.064-3.364c8.903-5.944 16.945-20.338 23.607-29.518l6.743-5.045 4.211-9.288 4.218-9.263 5.911-5.896s1.543-6.993 1.686-7.563c1.057-4.807 5.187-8.977 6.736-13.648 4.482-13.459 5.626-30.432 4.231-44.555l-.847-8.422-.859-6.75 3.385-10.968v-10.102l-1.679-5.91-.847-7.596v-7.576l-3.385-5.057-3.371-10.118-5.051-10.115s-4.063-10.542-4.205-10.948c-6.742-17.498-19.464-32.179-27.832-48.905l-5.896-8.443-10.122-9.261-10.115-2.526s-9.491-5.538-10.081-5.886c-8.09-4.719-17.02-7.769-25.104-12.487-5.314-3.111-10.825-10.66-16.241-12.824l-8.423-3.384-10.968-6.729h-10.114l-9.275-1.693s-13.311-1.662-13.486-1.683c-14.691-1.834-30.073-8.432-44.69-8.432-12.715-1.27-24.096 1.909-37.088 5.897l-6.736 3.375-5.91 1.683h-7.583c-8.814 0-22.064 7.921-31.197 10.967 0 0-10.433 4.019-10.934 4.205-18.219 7.003-32.708 22.318-43.858 37.95l-4.218 5.897-5.058 8.422-3.375 4.229-4.204 5.047-4.228 4.229-3.365 8.432v9.261l-3.35 1.67z" fill="url(#ian_symbols_75e6c33146b39364614c9e8ebb2ad5c7)"/>
 <radialGradient id="ian_symbols_4a64f9bf3e53d9346d36662695432503" gradientUnits="userSpaceOnUse" cy="284.94" cx="150.98" r="48.643">
  <stop stop-color="#704D1E" offset="0"/>
  <stop stop-color="#7C5A2F" offset=".2899"/>
  <stop stop-color="#815F37" offset=".4719"/>
  <stop stop-color="#91723D" offset=".7865"/>
  <stop stop-color="#A38754" offset="1"/>
 </radialGradient>
 <path d="m134.12 253.74c2.254-7.339 3.791-11.381 9.269-16.844.142-.129 13.005 3.385 13.452 3.913 2.038 2.268 1.259 4.495.887 7.84-1.706 15.138.555 23.33 10.947 34.609v7.603l-5.057 5.897-4.204 7.583s-.847 10.026-.847 10.114c-.392 4.543.921 17.413-2.532 20.426-8.009 6.967-15.585-21.651-16.56-25.537-2.918-11.584-1.99-21.916-1.99-33.669l-4.204-10.114.83-11.82z" fill="url(#ian_symbols_4a64f9bf3e53d9346d36662695432503)"/>
 <linearGradient id="ian_symbols_ab5cbdcfe7a80af4d5f79fb82a18c1b1" y2="314.61" gradientUnits="userSpaceOnUse" x2="250.82" y1="347.98" x1="217.44">
  <stop stop-color="#91723D" offset=".1461"/>
  <stop stop-color="#997B46" offset=".2064"/>
  <stop stop-color="#B19563" offset=".3922"/>
  <stop stop-color="#BCA16F" offset=".4944"/>
  <stop stop-color="#8E6C38" offset=".8427"/>
  <stop stop-color="#B5945D" offset="1"/>
 </linearGradient>
 <path d="m207.46 327.1c-3.365 5.043 7.583 8.436 10.311 21.082 2.133 2.559 4.854 4.543 7.38 6.709 2.938 2.491 13.249 2.776 16.12.217 3.364-2.972 1.794-9.35 3.507-13.154 2.403-5.328 10.331-8.057 10.846-14.354.339-4.217-3.257-9.417-5.409-12.646-4.705-7.102-16.195-17.521-22.721-6.249 2.884 3.629 7.38 7.318 9.357 11.625 2.004 4.414 5.165 9.302 2.64 14.353-2.524 5.064-10.148-3.168-16.803-6.053-1.42-.62-11.86-6.61-15.24-1.54z" fill="url(#ian_symbols_ab5cbdcfe7a80af4d5f79fb82a18c1b1)"/>
 <linearGradient id="ian_symbols_eabef7af1261a4146d1edb3ae12ac59c" y2="105.01" gradientUnits="userSpaceOnUse" x2="74.974" y1="361.6" x1="29.73">
  <stop stop-color="#6C695E" offset="0"/>
  <stop stop-color="#514A3C" offset=".264"/>
  <stop stop-color="#494032" offset=".691"/>
  <stop stop-color="#2F2514" offset="1"/>
 </linearGradient>
 <path d="m110.52 111.28v10.125c0 9.197 1.397 17.894 2.521 26.969 0 0-1.682 8.416-1.682 8.436.393-1.943-11.086 3.757-11.808 4.204-9.339 5.843-16.857 16.919-16.857 27.826v10.122l-3.362 19.39-1.706 14.333-1.682 15.179-.839 17.697-1.683 10.114-3.375 16.012-.833 11.517 1.682 12.932 1.683 13.499-1.683 16.845-.849 9.288-1.683 12.647s-9.221-5.877-9.275-5.896c-13.523-8.605-24.241-25.125-36.254-36.269-8.206-7.624-11.994-25.517-16.015-36.241 0 0-4.171-8.348-4.229-8.436-4.621-9.262-2.982-15.552 4.229-22.762l7.582-5.903s8.389-4.191 8.443-4.212c5.101-2.646-.044-18.95 4.204-21.082l6.753-3.365s4.194-11.74 4.215-11.814c2.677-7.488 7.897-12.051 11.797-18.53 0 0 7.45-12.43 7.592-12.66 3.233-5.403 4.425-16.133 9.266-20.229 6.029-5.098 13.5-8.937 18.709-14.956 4.61-5.328 4.787-11.401 8.27-17.071l6.739-10.957 10.13-6.76z" fill="url(#ian_symbols_eabef7af1261a4146d1edb3ae12ac59c)"/>
 <linearGradient id="ian_symbols_054154b0bc72b22401da349600349565" y2="312.74" gradientUnits="userSpaceOnUse" x2="65.912" y1="312.74" x1="13.374">
  <stop stop-color="#6C695E" offset="0"/>
  <stop stop-color="#9A9C90" offset=".691"/>
  <stop stop-color="#817F70" offset="1"/>
 </linearGradient>
 <path d="m17.035 270.78c-2.335 2.336-3.067 9.594-3.463 11.625-.874 4.413 1.344 10.114 2.701 14.217 6.76-2.031 6.848 7.014 8.257 11.93 2.054 7.21 6.029 13.899 8.432 21.082 1.692 5.071 7.406 4.109 10.727 1.246.569 1.747.799 3.608 1.07 5.483 1.202 8.456 5.66 13.568 12.65 18.551l5.901.853s1.648-6.58 1.683-6.749c4.062-16.323-6.151-16.411-14.716-26.811-6.827-8.321-13.361-17.63-19.847-26.303-1.117-1.48-6.228-32.24-13.395-25.12z" fill="url(#ian_symbols_054154b0bc72b22401da349600349565)"/>
 <radialGradient id="ian_symbols_6656ea3e20d812f4e1c3eca0ac62587b" fx="220.95" fy="202.33" gradientUnits="userSpaceOnUse" cy="202.81" cx="229.56" r="28.089">
  <stop stop-color="#7D6B4D" offset=".2135"/>
  <stop stop-color="#947753" offset=".5843"/>
  <stop stop-color="#968157" offset="1"/>
 </radialGradient>
 <path d="m209.99 177.89c-9.986 5.186-7.745 10.365-4.218 19.376 3.202 7.996 2.383 18.307 5.673 25.957 3.669 8.584 13.717 12.308 20.622 5.152 5.66-5.876 2.62-13.019 5.484-19.606 3.648-8.422 12.18-5.748 17.954-12.342 4.536-5.145-10.846-8.016-12.612-8.436-3.697-.839-8.937.014-12.674-.007-1.002-.156-1.422-10.792-1.503-12.227-3.06-.785-11.442-3.142-14.455-1.963-1.78.684-2.437 3.135-4.218 4.062-.02.02-.04.02-.05.04z" fill="url(#ian_symbols_6656ea3e20d812f4e1c3eca0ac62587b)"/>
 <linearGradient id="ian_symbols_775900093b806d14759a07f1e3dca433" y2="121.97" gradientUnits="userSpaceOnUse" x2="178.26" y1="204.26" x1="178.26">
  <stop stop-color="#7D6B4D" offset="0"/>
  <stop stop-color="#756044" offset=".4297"/>
  <stop stop-color="#6B543B" offset="1"/>
 </linearGradient>
 <path d="m181.36 122.33c-2.498.447-4.739 2.119-5.931 5.799-2.525 2.521-4.347 19.278-5.89 23.997-2.41 7.42-4.421 14.726-5.917 22.396-1.543 8.28 4.936 22.187 8.05 29.735 12.592.237 21.455-14.726 21.455-27.223v-9.275c0-6.594-7.583-9.045-9.776-14.448-2.281-5.572-.23-8.709 2.194-14.083 3.47-7.61 10.32-19.51-4.17-16.9z" fill="url(#ian_symbols_775900093b806d14759a07f1e3dca433)"/>
 <linearGradient id="ian_symbols_00ea048fd0f09de475ac3e1f2b43e46c" y2="197.23" gradientUnits="userSpaceOnUse" x2="131.7" y1="224.26" x1="84.882">
  <stop stop-color="#7A6A40" offset="0"/>
  <stop stop-color="#71613B" offset=".2773"/>
  <stop stop-color="#6A5937" offset=".6404"/>
  <stop stop-color="#685735" offset=".706"/>
  <stop stop-color="#635131" offset=".7561"/>
  <stop stop-color="#5B4729" offset=".8011"/>
  <stop stop-color="#503A1E" offset=".8428"/>
  <stop stop-color="#462F14" offset=".8708"/>
 </linearGradient>
 <path d="m112.2 165.23c2.898 23.385 24.448 30.859 4.229 53.113-9.948 10.94 1.541 29.362-7.634 39.39-16.658-8.693-13.425-25.091-9.593-40.331 4.14-16.384-.521-33.581 5.41-48.787.981-2.525 4.621-5.159 6.607-6.838.69 1.08.81 2.19.97 3.46z" fill="url(#ian_symbols_00ea048fd0f09de475ac3e1f2b43e46c)"/>
 <radialGradient id="ian_symbols_fa553279f37b2e44c90877f2494dd485" gradientUnits="userSpaceOnUse" cy="209.13" cx="282.98" r="13.532">
  <stop stop-color="#7D6B4D" offset=".2135"/>
  <stop stop-color="#947753" offset=".5843"/>
 </radialGradient>
 <path d="m279.03 194.12c-7.109 4.895-8.138 20.168-3.291 26.885 7.38 10.223 11.09.014 11.814-7.725.339-3.459 5.396-4.488 5.653-7.86.257-3.453-3.818-6.378-5.653-8.991-2.84-4.08-5.82-4.15-8.52-2.31z" fill="url(#ian_symbols_fa553279f37b2e44c90877f2494dd485)"/>
 <linearGradient id="ian_symbols_afded883b2f355f4b5c42ebc056433c9" y2="184.11" gradientUnits="userSpaceOnUse" x2="342.41" y1="184.11" x1="299.03">
  <stop stop-color="#968157" offset=".2135"/>
  <stop stop-color="#B3945B" offset=".9213"/>
 </linearGradient>
 <path d="m301.89 176.2s-1.639 3.311-1.693 3.365c-6.96 6.926 19.289 14.691 23.588 14.339 4.204-.345 10.223 1.97 14.163.373 12.782-5.2-5.518-7.021-9.938-7.955-9.133-1.997-14.089-15.037-24.434-12.66l-1.69 2.54z" fill="url(#ian_symbols_afded883b2f355f4b5c42ebc056433c9)"/>
 <linearGradient id="ian_symbols_ab778c2d77cb4c14f5225cd54f74fd91" y2="294.53" gradientUnits="userSpaceOnUse" x2="426.65" y1="294.53" x1="366.06">
  <stop stop-color="#C4A46F" offset=".1236"/>
  <stop stop-color="#C5A56E" offset=".5562"/>
  <stop stop-color="#D0BA8D" offset=".9944"/>
 </linearGradient>
 <path d="m379.57 282.14c-2.262-1.138-4.557-1.99-6.852-2.248-8.673-.988-6.655 7.075-5.931 12.647 1.57 10.162 13.425 4.502 18.558 7.583 0 0 4.163 2.512 4.218 2.531 6.025 3.63 4.245 7.407 13.019 6.445 10.379-1.138 15.896-14.941 24.068-20.778 0 0-4.156-2.49-4.212-2.531-8.617-5.247-12.524 4.807-19.788 6.289-7.37 1.53-15.15-5.99-23.09-9.94z" fill="url(#ian_symbols_ab778c2d77cb4c14f5225cd54f74fd91)"/>
 <linearGradient id="ian_symbols_4f0f822ee62cdd44e54e3b625def6f61" y2="104.36" gradientUnits="userSpaceOnUse" x2="203.25" y1="104.36" x1="147.72">
  <stop stop-color="#492C13" offset="0"/>
  <stop stop-color="#53381F" offset=".1959"/>
  <stop stop-color="#60472E" offset=".4966"/>
  <stop stop-color="#685137" offset=".7633"/>
  <stop stop-color="#6B543B" offset=".9663"/>
 </linearGradient>
 <path d="m186.15 89.279c-1.517 5.273 1.083 12.047-1.821 18.11-1.354 2.84-4.651 4.522-6.5 7.088-7.474 10.399-7.988 19.007-21.583 23.378-16.716 5.352-4.347-14.833-.711-20.764 4.028-6.577 9.032-12.88 11.665-20.209 4.881-13.504 4.13-20.219 17.501-26.905h18.544v4.214l-3.372 5.9s-6.655 2.492-6.75 2.535c-4.29 1.597-6.18 3.912-6.97 6.644z" fill="url(#ian_symbols_4f0f822ee62cdd44e54e3b625def6f61)"/>
 <linearGradient id="ian_symbols_76feae70795aa8e4c12baba4c83a3a40" y2="109.36" gradientUnits="userSpaceOnUse" x2="303.05" y1="109.36" x1="276.59">
  <stop stop-color="#D3C3A3" offset=".0056"/>
  <stop stop-color="#E6D8B7" offset=".5506"/>
  <stop stop-color="#E6D3B4" offset=".9944"/>
 </linearGradient>
 <path d="m276.59 94.425h6.75s10.765 3.307 10.947 3.364c6.235 1.919 9.932 5.961 8.436 12.646l-1.686 7.594s-4.956 4.959-5.044 5.057c-4.373 4.361-13.134-4.14-14.278-7.494-1.266-3.758-.054-10.44-.054-14.417l-5.08-6.755z" fill="url(#ian_symbols_76feae70795aa8e4c12baba4c83a3a40)"/>
 <path opacity=".8" d="m360.47 72.783c23.621 20.984 42.862 33.11 43.431 67.442.935 57.882-8.26 117.31-66.328 143.86-67.98 31.109-169.73 3.385-206.83-84.283 18.022 7.691 51.867 35.158 69.977 42.687 28.983 12.037 61.176 9.024 91.947 9.024 11.117 0 29.654-11.34 38.977-16.438 43.35-23.797 76.896-74.418 51.556-121.81-7.32-13.68-15.03-26.987-22.74-40.477z" fill="#DDBB93"/>
 <linearGradient id="ian_symbols_289277ca87ab3004759aa4cfb8a181d9" y2="99.267" gradientUnits="userSpaceOnUse" x2="372.66" y1="317.84" x1="372.66">
  <stop stop-color="#FBEABE" offset=".0056"/>
  <stop stop-color="#FDF9C8" offset=".1629"/>
  <stop stop-color="#FFE3B3" offset=".4382"/>
  <stop stop-color="#F8E8B6" offset=".5955"/>
  <stop stop-color="#D8B685" offset=".7753"/>
  <stop stop-color="#FBE4B5" offset=".8876"/>
  <stop stop-color="#D3BA8E" offset=".9944"/>
 </linearGradient>
 <path d="m391.31 99.306c-.325-.251-.799.656-2.099 3.865-3.724 9.33 4.395 21.892 7.265 30.28 5.078 14.867-1.761 26.221-2.749 40.432-.792 11.083-3.967 23.486-11.529 32.071-3.013 3.439-6.662 5.43-9.411 9.33-4.645 6.52-6.953 13.303-12.728 19.079-8.924 8.909-23.574 12.498-30.04 24.184-6.52 11.841-1.55 15.551 7.271 22.192l6.75 4.198 1.686 12.646 10.101 9.288 6.758.827 5.063 7.582 8.423 2.559s1.618-5.66 1.686-5.923c2.586-9.066-23.663-18.917-10.129-31.286 4.279-3.906 28.706-3.865 30.358-9.153 2.674-8.625.589-11.36-4.218-18.57-5.078-7.624 11.631-14.197 15.158-16.736 10.609-7.603 4.015-23.588 8.449-34.684-1.326-7.976-2.966-14.651-6.642-21.936-7.014-13.859 11.13-19.62 6.893-32.396-2.316-6.929-11.354-6.12-14.096-12.007-2.661-5.67 3.486-12.159.975-18.256-1.625-3.93-8.104-9.59-11.002-12.803-1.61-1.78-1.74-4.436-2.19-4.774z" fill="url(#ian_symbols_289277ca87ab3004759aa4cfb8a181d9)"/>
 <linearGradient id="ian_symbols_f34b934a9c4180d47df3cfcaacc9a118" y2="265.59" gradientUnits="userSpaceOnUse" x2="231.1" y1="306.96" x1="189.73">
  <stop stop-color="#D1BC8D" offset=".2247"/>
  <stop stop-color="#FDF1BD" offset=".9944"/>
 </linearGradient>
 <path d="m201.81 260.38c2.762-1.09 6.526.129 12.396 2.641l5.911.854 5.883 1.686s6.743 1.679 6.75 1.679c.088.021 6.276 24.779 5.856 25.626-2.152 4.522-9.925 1.049-13.574 3.128-9.492 5.463-11.929 19.708-23.337 22.896-1.639-.874-1.144-14.705-1.415-16.757-.874-6.513-1.652-8.279-6.317-12.978-3.574-3.609.745-14.374 1.821-18.375 1.69-6.18 3.4-9.35 6.03-10.4z" fill="url(#ian_symbols_f34b934a9c4180d47df3cfcaacc9a118)"/>
 <linearGradient id="ian_symbols_fb82e8970a76e9940d925c0118d7f602" y2="288.71" gradientUnits="userSpaceOnUse" x2="316.28" y1="349.12" x1="255.87">
  <stop stop-color="#F1E8C9" offset="0"/>
  <stop stop-color="#E7D6B5" offset=".382"/>
  <stop stop-color="#DBC498" offset=".6011"/>
  <stop stop-color="#FDF1BD" offset=".9944"/>
 </linearGradient>
 <path d="m290.73 267.04c-3.71-1.178-7.609-1.482-10.562-.63-14.346 4.212-3.527 18.524-3.899 28.246-.325 8.348-9.275 9.309-10.291 15.862-.859 5.396 8.747 13.371 12.302 16.581l5.91 9.261-5.91 7.583s-9.932 9.112-10.114 9.282c-8.477 7.779 12.755 16.363 16.024 17.718 10.968 4.502 13.074.047 9.262-10.135-1.259-1.503-2.383-2.62-2.958-4.455 1.272-.697 2.39-.59 3.798-.59h4.231c8.084-2.314 12.951-8.977 7.819-16.56-2.653-3.934-6.316-7.081-8.99-10.947-7.941-11.489-7.156-25.361.324-36.573 3.914-5.896 7.976-11.056 3.446-17.846-2.01-2.97-6.07-5.44-10.39-6.78z" fill="url(#ian_symbols_fb82e8970a76e9940d925c0118d7f602)"/>
 <radialGradient id="ian_symbols_ad9b3708b15c3c34d1042d1c4591cf1c" gradientUnits="userSpaceOnUse" cy="283.18" cx="251.17" r="12.655">
  <stop stop-color="#CA9D60" offset=".0056"/>
  <stop stop-color="#E7C183" offset=".9944"/>
 </radialGradient>
 <path d="m242.03 279.04v5.897c.196 9.085 7.712 5.611 10.873 9.173 6.256 7.034 9.133 1.794 9.086-5.328-.014-2.444-.887-7.819-2.472-9.763-2.64-3.257-7.589-1.882-9.891-4.197l-4.231-4.218-5.044-1.68 1.67 10.12z" fill="url(#ian_symbols_ad9b3708b15c3c34d1042d1c4591cf1c)"/>
 <linearGradient id="ian_symbols_8014dc981a22a434450045d2b52d0740" y2="272.82" gradientUnits="userSpaceOnUse" x2="331.46" y1="340.48" x1="331.46">
  <stop stop-color="#C0A16B" offset=".0281"/>
  <stop stop-color="#AF8F5D" offset=".1686"/>
  <stop stop-color="#A07F50" offset=".37"/>
  <stop stop-color="#9B7A4C" offset=".5393"/>
  <stop stop-color="#CBA473" offset=".8483"/>
  <stop stop-color="#DEB87F" offset=".9944"/>
 </linearGradient>
 <path d="m315.57 291.49c-2.391 2.403-5.437 4.631-5.254 4.414-5.836 6.662-10.365 14.157-3.575 22.877 4.185 5.369 14.13 4.915 20.434 6.614 2.978.833 2.409 4.942 4.421 6.534 3.073 2.383 5.05 2.315 9.065 2.755 0 0 4.996 4.278 5.802 4.983 2.031 1.679 6.601.413 8.436-.616-.224-.325-5.166-7.34-4.97-7.731 2.654-4.787 10.846-8.544 9.499-15.207-1.374-6.749-12.999-5.327-17.454-7.778-4.258-2.315-4.306-6.337-7.44-9.33-2.241-2.118-6.303-2.139-8.455-4.258-3.67-3.608-1.389-3.887-3.439-8.301-1.05-2.274-10.697-16.411-14.604-13.134-1.117.921-1.89 2.031-2.763 3.188v3.392s4.38 4.388 4.976 4.977c.867.874 4.625.745 5.925.853 3.79.32 1.97 3.16-.61 5.78z" fill="url(#ian_symbols_8014dc981a22a434450045d2b52d0740)"/>
 <path opacity=".7" d="m409.51 52.554c8.916 6.347 39.491 20.994 46.221 29.735 8.713 11.327 11.706 26.346 17.67 39.149 10.847 23.289 18.761 50.726 19.282 76.114.501 23.811.874 45.13-10.095 67.479-6.005 12.281-12.877 33.06-22.49 42.667 0 .026-21.354 21.366-21.354 21.366l-42.714 38.211c43.824-68.556 70.81-130.38 60.188-211.6-3.175-24.35-2.87-40.178-10.744-59.28l-35.97-43.846z" fill="#CFB89E"/>
 <linearGradient id="ian_symbols_878baf004708d694053fe229c9b06221" y2="95.031" gradientUnits="userSpaceOnUse" x2="451.97" y1="95.031" x1="399.99">
  <stop stop-color="#78502B" offset=".0056"/>
  <stop stop-color="#7F6146" offset=".5281"/>
  <stop stop-color="#7F6B57" offset="1"/>
 </linearGradient>
 <path d="m408.12 75.024c-5.605 5.603-13.114 16.909-3.521 21.858 4.13 2.139 3.453 15.784 7.265 14.667 3.832-1.114 5.125-7.447 6.249-7.58 4.685-.579 2.782 3.199 6.019 5.626.744.555 11.231 9.208 12.641 5.897l2.531-5.897s.84-4.208 4.219-4.208c3.371 0 4.218 10.216 8.455 4.983-4.549-14.059-13.283-25.081-23.628-35.317-2.166-2.174-1.171 7.779-1.51 8.5-5.64 11.897-11.55-15.696-18.72-8.529z" fill="url(#ian_symbols_878baf004708d694053fe229c9b06221)"/>
 <linearGradient id="ian_symbols_8429db5570566184d94b652e0bc3fede" y2="312.75" gradientUnits="userSpaceOnUse" x2="212.24" y1="398.92" x1="126.06">
  <stop stop-color="#7F6B57" offset=".0056"/>
  <stop stop-color="#86735D" offset=".0643"/>
  <stop stop-color="#A39077" offset=".3113"/>
  <stop stop-color="#BAA98C" offset=".5535"/>
  <stop stop-color="#CABA9C" offset=".7864"/>
  <stop stop-color="#D1C2A2" offset="1"/>
 </linearGradient>
 <path opacity=".4" d="m77.913 266.1l-4.488 29.302v22.612c0 68.901 85.173 80.654 133.42 86.45 10.961 1.327 21.644 5.436 32.673 6.025 13.588.677 50.154-4.326 63.207-7.251-14.38-4.367-52.896-11.861-67.432-15.727-33.959-8.328-61.088-23.751-91.046-42.715-29.7-18.75-50.041-47.56-66.327-78.68z" fill="url(#ian_symbols_8429db5570566184d94b652e0bc3fede)"/>
 <linearGradient id="ian_symbols_ee09a18865ec9e644db8736c8770970e" y2="296.99" gradientUnits="userSpaceOnUse" x2="480.84" y1="154.91" x1="90.492">
  <stop stop-color="#9B978C" offset="0"/>
  <stop stop-color="#A6987A" offset=".1966"/>
  <stop stop-color="#EFDEBD" offset=".4494"/>
  <stop stop-color="#F8E8B6" offset=".691"/>
  <stop stop-color="#D8C493" offset="1"/>
 </linearGradient>
 <path d="m300.08 115.09c-2.377 11.283-9.208 20.406-23.345 21.147-34.033 1.794-40.817-47.636-8.713-57.764 34.318-10.812 58.942 26.719 56.2 57.405-2.56 28.553-35.652 34.193-59.192 33.577-14.881-.379-30.995-4.103-42.551-13.947-7.407-6.283-11.95-14.597-14.197-23.957-3.135-13.032-5.904-28.337.948-40.581 7.508-13.425 21.97-23.432 35.788-29.386 12.769-5.524 26.904-5.755 40.561-4.279 9.248.991 25.842 1.167 33.979 5.897 22.788 13.273 43.905 33.228 55.61 57.12 26.276 53.512-16.634 94.107-58.955 119.1 0 0-12.538 5.004-12.633 5.051-14.868 5.938-32.132 6.791-47.927 5.437-13.283-1.137-25.361-8.368-38.069-9.654 0 0-16.458-1.639-16.865-1.686-5.754-.609-10.331-10.088-14.319-13.581-4.076-3.568-9.363-5.68-13.493-9.167-9.262-7.827-20.406-14.251-27.142-24.61-4.502-6.913-6.181-15.619-10.203-22.85-9.667-17.312-13.263-54.291-4.306-72.456 2.918-5.924 9.025-9.123 12.681-14.43 2.37-3.443 2.539-7.898 4.732-11.449 4.577-7.451 13.195-12.989 19.173-19.454 0 0 10.115-10.935 10.115-10.958 2.641-2.86 15.01-5.735 19.505-7.907 6.086-2.929 12.173-5.606 18.429-8.094l16.019-3.398c11.063-3.06 22.01-6.479 32.89-10.105 7.251-2.424 21.563 2.36 29.011 3.615 9.613 1.595 19.207 3.453 28.896 4.533 25.523 2.864 42.11 8.48 62.646 23.892 0 0 15.151 9.262 15.171 9.262 9.757 5.964 17.793 12.67 29.472 16.015 14.725 4.229 21.096 29.112 27.236 41.018 4.469 8.683 12.856 17.271 15.781 26.435 0 0 6.75 21.073 6.75 21.086 10.63 33.195.515 74.663-8.429 107.03-2.187 7.955-11.746 17.461-16.343 24.251-10.914 16.147-22.823 31.414-35.077 46.6-12.945 16.012-35.544 28.138-51.427 42.146 0 0-15.166 5.896-15.172 5.896-9.776 3.805-19.804 6.858-29.782 10.095-5.403 1.767-14.178 6.77-19.952 6.77 0 0-29.059.833-29.505.833-10.934.305-24.143 4.827-36.119 5.376-13.446.609-23.933-5.681-36.343-9.77-13.561-4.435-28.259-4.103-42.009-8.192-8.409-2.512-17.359-5.199-25.477-7.644-4.827-1.441-10.799-8.016-15.169-10.683-11.492-7.015-23.727-9.242-34.563-17.129-6.936-5.044-5.101-30.04-7.592-38.78-1.016-24.143 2.305-48.455 4.218-72.51l1.679-41.298c-2.488 15.186-7.589 32.348-7.589 59.016 0 14.509-6.445 30.04-5.89 45.226.263 7.623 2.535 15.64 2.515 23.046-.034 11.272-2.525 21.543-2.525 32.883l-.84 9.282 5.897 2.532 8.433 10.122 9.275 7.575 4.218.854 8.422 5.876 9.271 4.218 5.071 4.218 10.104 2.532 6.75.854 10.947 6.729 5.904.854 10.128 5.896h21.915l21.069 5.07 21.922 2.532 10.961-1.706s4.028-2.403 4.218-2.512c1.943-1.178 9.83 1.97 12.349 2.539 18.849 4.19 27.169-2.844 41.61-6.777l18.537-1.679 15.172-5.051 12.64-3.385 8.442-8.43 11.801-4.197 6.736-5.924c3.596-3.121 11.943-4.651 16.432-6.966 6.094-3.148 11.916-6.798 17.948-10.075 6.086-3.276 10.805-6.445 16.208-10.765l7.596-10.968 5.044-5.903 7.59-5.044s8.205-8.192 8.422-8.436c8.313-8.301 12.268-18.876 21.929-26.127l5.91-13.5 8.43-10.947s1.686-7.535 1.686-7.563c9.262-15.205 10.968-29.274 10.968-47.249v-10.955l-.847-8.422-.859-6.75 3.385-10.968v-10.102l-.853-8.436-1.673-12.647-3.385-7.596c-8.422-26.126-19.391-48.881-35.415-69.963l-8.422-16.026-13.486-11.787s-15.003-4.116-15.166-4.228c-10.975-6.74-14.569-11.141-27.832-16.012l-13.48-10.95-13.5-6.739-10.108-3.375-10.114-1.693c-10.867-2.569-21.82-2.711-32.877-4.218l-22.774-5.897-18.54-.842-13.479 1.682-10.129 1.682-6.743 3.375-6.736 3.375s-8.523.633-9.289.843c-3.426.982-5.701-.636-9.269 0-12.105 2.173-28.861 10.104-39.613 16.012l-9.282 5.07-10.947 9.262s-8.226 6.577-8.442 6.75c-8.226 6.598-13.141 17.806-19.39 26.14l-5.057 6.74-11.801 14.333c-3.375 18.547-2.6 36.583.843 57.327l-1.682 7.583 1.682 14.333 4.214 9.262s6.602 9.905 6.744 10.128c8.32 12.471 20.196 21.854 30.107 32.951 11.3 12.626 24.738 16.424 40.689 21.015 5.091 1.441 9.241 6.465 14.157 8.476 9.586 3.846 29.207 8.781 39.815 7.536l14.333-1.68s19.248-2.512 19.396-2.538c11.949-1.571 21.902 2.559 33.282-3.162 4.679-2.363 9.127-5.396 13.886-7.779 11.158-5.592 21.773-13.324 30.378-21.929l8.437-7.596 2.525-7.589c10.298-7.197 17.528-15.152 18.503-28.476.236-3.419-1.009-6.926-.474-10.325 1.543-9.81 7.758-16.973 6.742-27.44-1.035-10.565-6.926-20.416-10.27-30.368-1.09-3.223-1.876-10.704-4.347-12.965-13.906-12.63-3.813-33.252-10.778-37.711-6.96-4.468-10.934 1.388-12.457 1.05-11.632-2.654-16.669-18.419-26.146-24.349.203.142-10.346 6.214-12.675 5.669-4.732-1.158-7.528-5.297-10.486-8.75 0 0-12.431-1.648-12.641-1.683-5.734-.765-12.233 1.07-17.237 3.782-3.648 1.987-7.386 8.51-10.581 9.698 0 0-6.73 2.525-6.743 2.536-.86.329-8.855-6.063-10.921-6.577-4.035-.982-7.027-.633-10.737 1.093-11.699 5.518-10.684 20.284-25.07 14.451-2.756-1.104-9.316-6.348-12.586-4.969-3.345 1.418-4.333 7.383-1.375 10.321 8.74 8.75 4.475 8.49-3.365 16.364-8.3 8.348-.46 14.77-3.825 24.021-1.28 3.575-8.829 16.76 2.119 13.582 2.654 7.481-4.076 12.288-3.846 18.655.23 6.445 3.595 10.389 13.121 15.907 3.9 2.268 3.629 13.324 7.59 15.186 7.014 3.263 15.93-.528 19.383.839 3.507 1.374 5.843 9.952 10.975 10.954 5.802 1.137 14.4-5.362 18.496-4.719 8.368 1.313 12.769 5.964 21.123 4.719 6.175-.927 16.344-7.109 22.362-9.708 7.698-3.304 20.866-.961 25.68-6.303 5.856-6.493 2.653-15.382 2.539-25.291-.102-8.039 3.493-17.007 2.342-23.583-1.55-8.859-3.865-23.182-9.925-30.378-4.481-5.288-13.696-8.924-24.461-10.958-4.028-.766-13.128-3.267-16.012-4.214-11.861-3.869-21.292 1.791-28.665 5.897-7.373 4.109-20.229 10.957-22.762 16.868-2.539 5.906 4.915 10.135 3.385 15.967-1.462 5.649-5.131 8.696-.853 14.387 8.117-1.026 8.774 3.192 13.337 7.451 5.856 5.44 9.079 3.822 16.113 5.484 2.722.643 5.45 3.812 8.368 3.988 3.954.23 4.238-2.404 7.569-2.962 6.872-1.145 10.825 2.589 15.741-4.15 1.82-2.501 1.421-5.799 3.432-8.53 1.639-2.228 5.741-4.523 7.929-6.357-3.649-5.102-4.455-11.438-7.583-16.844.16 4.16-.12 8.34-.94 12.23z" fill="url(#ian_symbols_ee09a18865ec9e644db8736c8770970e)"/>
</svg>
